<svg xmlns="http://www.w3.org/2000/svg" viewBox="-110 -110 220 220">
  <defs>
    <filter id="insetShadow">
      <feOffset dx="0" dy="0"/>
      <feGaussianBlur stdDeviation="4" result="offset-blur"/>
      <feComposite operator="out" in="SourceGraphic" in2="offset-blur" result="inverse"/>
      <feFlood flood-color="black" flood-opacity="0.75" result="color"/>
      <feComposite operator="in" in="color" in2="inverse" result="shadow"/>
      <feComposite operator="over" in="shadow" in2="SourceGraphic"/>
    </filter>
  </defs>
  <style>
    text { font-family: Arial, sans-serif; font-size: 10px; fill: white; text-anchor: middle; }
    .tick { stroke: white; stroke-width: 1; }
  </style>
  
  <!-- 背景の円 -->
  <circle cx="0" cy="0" r="100" fill="#333"  filter="url(#insetShadow)" />
  
  <!-- メモリ -->
  <g>
    <!-- 大きなメモリ (-100, -50, 0, 50, 100) -->
    <line class="tick" x1="0" y1="-95" x2="0" y2="-105" transform="rotate(0)" />
    <line class="tick" x1="0" y1="-95" x2="0" y2="-105" transform="rotate(-60)" />
    <line class="tick" x1="0" y1="-95" x2="0" y2="-105" transform="rotate(-120)" />
    <line class="tick" x1="0" y1="-95" x2="0" y2="-105" transform="rotate(60)" />
    <line class="tick" x1="0" y1="-95" x2="0" y2="-105" transform="rotate(120)" />
    
    <!-- 小さなメモリ (10刻み) -->
    <line class="tick" x1="0" y1="-97" x2="0" y2="-100" transform="rotate(-12)" />
    <line class="tick" x1="0" y1="-97" x2="0" y2="-100" transform="rotate(-24)" />
    <line class="tick" x1="0" y1="-97" x2="0" y2="-100" transform="rotate(-36)" />
    <line class="tick" x1="0" y1="-97" x2="0" y2="-100" transform="rotate(-48)" />
    <line class="tick" x1="0" y1="-97" x2="0" y2="-100" transform="rotate(-72)" />
    <line class="tick" x1="0" y1="-97" x2="0" y2="-100" transform="rotate(-84)" />
    <line class="tick" x1="0" y1="-97" x2="0" y2="-100" transform="rotate(-96)" />
    <line class="tick" x1="0" y1="-97" x2="0" y2="-100" transform="rotate(-108)" />
    <line class="tick" x1="0" y1="-97" x2="0" y2="-100" transform="rotate(12)" />
    <line class="tick" x1="0" y1="-97" x2="0" y2="-100" transform="rotate(24)" />
    <line class="tick" x1="0" y1="-97" x2="0" y2="-100" transform="rotate(36)" />
    <line class="tick" x1="0" y1="-97" x2="0" y2="-100" transform="rotate(48)" />
    <line class="tick" x1="0" y1="-97" x2="0" y2="-100" transform="rotate(72)" />
    <line class="tick" x1="0" y1="-97" x2="0" y2="-100" transform="rotate(84)" />
    <line class="tick" x1="0" y1="-97" x2="0" y2="-100" transform="rotate(96)" />
    <line class="tick" x1="0" y1="-97" x2="0" y2="-100" transform="rotate(108)" />
  </g>
  
  <!-- 数値ラベル -->
  <text x="0" y="-80" transform="rotate(0)">0 db</text>
  <text x="0" y="-80" transform="rotate(-120)">-100</text>
  <text x="0" y="-80" transform="rotate(120)">100</text>
  <text x="0" y="-80" transform="rotate(-60)">-50</text>
  <text x="0" y="-80" transform="rotate(60)">50</text>
</svg>